<svg viewBox="0 0 35 35" fill="none" xmlns="http://www.w3.org/2000/svg">
<path d="M0 7.99794C0 3.58086 3.58086 0 7.99794 0H27.0019C31.4191 0 35 3.58086 35 7.99794V27.0019C35 31.4191 31.4191 35 27.0019 35H7.99794C3.58086 35 0 31.4191 0 27.0019V7.99794Z" fill="black"/>
<path d="M9.2969 25.7031C9.2969 23.4378 11.1333 21.6015 13.3985 21.6015H17.4999V25.7031C17.4999 27.9683 15.6637 29.8047 13.3985 29.8047C11.1333 29.8047 9.2969 27.9683 9.2969 25.7031Z" fill="#24CB71"/>
<path d="M17.4999 5.19534V13.3983H21.6015C23.8667 13.3983 25.7031 11.5622 25.7031 9.29693C25.7031 7.0317 23.8667 5.19534 21.6015 5.19534H17.4999Z" fill="#FF7237"/>
<path d="M21.5674 21.6015C23.8327 21.6015 25.669 19.7651 25.669 17.4999C25.669 15.2347 23.8327 13.3984 21.5674 13.3984C19.3022 13.3984 17.4659 15.2347 17.4659 17.4999C17.4659 19.7651 19.3022 21.6015 21.5674 21.6015Z" fill="#00B6FF"/>
<path d="M9.2969 9.29693C9.2969 11.5622 11.1333 13.3985 13.3985 13.3985H17.4999V5.19534H13.3985C11.1333 5.19534 9.2969 7.0317 9.2969 9.29693Z" fill="#FF3737"/>
<path d="M9.2969 17.4999C9.2969 19.7651 11.1333 21.6015 13.3985 21.6015H17.4999V13.3985H13.3985C11.1333 13.3985 9.2969 15.2347 9.2969 17.4999Z" fill="#874FFF"/>
</svg>
