<svg viewBox="0 0 35 35" fill="none" xmlns="http://www.w3.org/2000/svg">
<path d="M27.2174 0H7.78264C3.48441 0 0 3.59106 0 8.02085V26.9791C0 31.4089 3.48441 35 7.78264 35H27.2174C31.5156 35 35 31.4089 35 26.9791V8.02085C35 3.59106 31.5156 0 27.2174 0Z" fill="#4B2300"/>
<path d="M27.2175 1.67005H7.78277C4.37944 1.67005 1.6205 4.51344 1.6205 8.02093V26.9792C1.6205 30.4867 4.37944 33.3301 7.78277 33.3301H27.2175C30.6208 33.3301 33.3798 30.4867 33.3798 26.9792V8.02093C33.3798 4.51344 30.6208 1.67005 27.2175 1.67005Z" fill="#4B2300"/>
<path d="M12.2622 20.437L11.2746 23.5766C11.2609 23.6267 11.2311 23.6705 11.19 23.7009C11.1489 23.7312 11.0991 23.7463 11.0486 23.7436H8.66097C8.51675 23.7436 8.47543 23.6601 8.49893 23.5315L12.6147 11.2923C12.6957 11.0593 12.7767 10.8047 12.8205 9.99889C12.8186 9.96245 12.8305 9.92667 12.8536 9.89899C12.8766 9.87132 12.9092 9.85387 12.9444 9.85027H16.237C16.3399 9.85027 16.3812 9.87114 16.399 9.97718L21.0714 23.5523C21.1127 23.6584 21.0916 23.7436 20.9685 23.7436H18.2949C18.246 23.7508 18.1962 23.7398 18.1544 23.7125C18.1127 23.6853 18.0818 23.6436 18.0672 23.5949L17.014 20.4345L12.2622 20.437ZM16.2556 17.7859C15.8441 16.3857 15.0201 13.8189 14.6296 12.3135H14.6085C14.2796 13.7329 13.5383 16.0709 13.0036 17.7859H16.2556Z" fill="#FF7C01"/>
<path d="M22.306 10.4256C22.306 9.47125 22.985 8.7924 23.911 8.7924C24.8986 8.7924 25.4957 9.47125 25.4957 10.4256C25.4957 11.4226 24.8581 12.0797 23.8908 12.0797C22.9234 12.0797 22.306 11.4226 22.306 10.4256ZM22.4494 13.374C22.4494 13.2679 22.4908 13.207 22.6115 13.207H25.1425C25.2665 13.207 25.3045 13.2487 25.3045 13.374V23.5549C25.3045 23.6827 25.2843 23.7461 25.1198 23.7461H22.6552C22.5118 23.7461 22.4494 23.6827 22.4494 23.5549V13.374Z" fill="#FF7C01"/>
</svg>
