<svg width="35" height="35" viewBox="0 0 35 35" fill="none" xmlns="http://www.w3.org/2000/svg">
  <!-- Layer 1: outer rounded rect background (viewBox 35x35, direct child, full size) -->
  <path d="M27.2174 0H7.78264C3.48441 0 0 3.59106 0 8.02085V26.9791C0 31.4089 3.48441 35 7.78264 35H27.2174C31.5156 35 35 31.4089 35 26.9791V8.02085C35 3.59106 31.5156 0 27.2174 0Z" fill="#001D23"/>

  <!-- Layer 2: inner rounded rect (viewBox 31.76x31.66, stretched to 35x35) -->
  <g transform="scale(1.1018, 1.1052)">
    <path d="M25.597 0H6.16227C2.75894 0 0 2.84339 0 6.35088V25.3092C0 28.8167 2.75894 31.6601 6.16227 31.6601H25.597C29.0003 31.6601 31.7593 28.8167 31.7593 25.3092V6.35088C31.7593 2.84339 29.0003 0 25.597 0Z" fill="#001D23"/>
  </g>

  <!-- Layer 3: circular shadow clip (viewBox 26.97x26.97, inner group at 1.455,3.729, size 29.545x27.862) -->
  <g transform="translate(2.932, 5.122) scale(0.9857, 0.9296)">
    <defs>
      <mask id="m1" style="mask-type:luminance" maskUnits="userSpaceOnUse" x="0" y="0" width="27" height="27">
        <path d="M13.4872 26.9744C20.936 26.9744 26.9744 20.936 26.9744 13.4872C26.9744 6.03844 20.936 0 13.4872 0C6.03843 0 0 6.03844 0 13.4872C0 20.936 6.03843 26.9744 13.4872 26.9744Z" fill="white"/>
      </mask>
    </defs>
    <g mask="url(#m1)">
      <path d="M13.4873 26.9911C21.0569 26.9911 27.1933 20.8548 27.1933 13.2852C27.1933 5.71561 21.0569 -0.420751 13.4873 -0.420751C5.91774 -0.420751 -0.218619 5.71561 -0.218619 13.2852C-0.218619 20.8548 5.91774 26.9911 13.4873 26.9911Z" fill="black" fill-opacity="0.4745"/>
    </g>
  </g>

  <!-- Layer 4: gradient color circles (viewBox 26.97x26.97, same position) -->
  <g transform="translate(2.932, 5.122) scale(0.9857, 0.9296)">
    <defs>
      <linearGradient id="g1" x1="25.1658" y1="20.2304" x2="7.65015" y2="10.1174" gradientUnits="userSpaceOnUse">
        <stop stop-color="#FFFF00"/>
        <stop offset="1" stop-color="#FFFF00" stop-opacity="0"/>
      </linearGradient>
      <linearGradient id="g2" x1="1.80692" y1="20.2305" x2="19.3225" y2="10.1176" gradientUnits="userSpaceOnUse">
        <stop stop-color="#00FFFF"/>
        <stop offset="1" stop-color="#00FFFF" stop-opacity="0"/>
      </linearGradient>
      <linearGradient id="g3" x1="13.4869" y1="0" x2="13.4869" y2="20.2259" gradientUnits="userSpaceOnUse">
        <stop stop-color="#FF00FF"/>
        <stop offset="1" stop-color="#FF00FF" stop-opacity="0"/>
      </linearGradient>
    </defs>
    <path d="M13.4872 26.9744C20.936 26.9744 26.9744 20.936 26.9744 13.4872C26.9744 6.03844 20.936 0 13.4872 0C6.03843 0 0 6.03844 0 13.4872C0 20.936 6.03843 26.9744 13.4872 26.9744Z" fill="white"/>
    <path d="M13.4872 26.9744C20.936 26.9744 26.9744 20.936 26.9744 13.4872C26.9744 6.03844 20.936 0 13.4872 0C6.03843 0 0 6.03844 0 13.4872C0 20.936 6.03843 26.9744 13.4872 26.9744Z" fill="url(#g1)"/>
    <path d="M13.4872 26.9744C20.936 26.9744 26.9744 20.936 26.9744 13.4872C26.9744 6.03844 20.936 0 13.4872 0C6.03843 0 0 6.03844 0 13.4872C0 20.936 6.03843 26.9744 13.4872 26.9744Z" fill="url(#g2)"/>
    <path d="M13.4872 26.9744C20.936 26.9744 26.9744 20.936 26.9744 13.4872C26.9744 6.03844 20.936 0 13.4872 0C6.03843 0 0 6.03844 0 13.4872C0 20.936 6.03843 26.9744 13.4872 26.9744Z" fill="url(#g3)"/>
  </g>

  <!-- Layer 5: brush shadow (viewBox 19.78x19.24, inner group position) -->
  <g transform="translate(2.932, 5.122) scale(1.3441, 1.3030)">
    <path d="M2.01174 0C1.23267 0.803889 0.556894 1.70184 0 2.67251C1.97192 4.60231 4.09562 6.65041 4.96126 7.58357C6.4265 9.16249 9.47989 11.4686 11.7075 11.2031C12.587 11.8217 14.5797 13.2073 15.2456 13.5357C15.2323 13.8543 15.2964 14.1768 15.4107 14.4977C16.0351 16.2457 18.37 17.3814 17.0109 19.2443C19.6863 17.6232 20.3973 14.9178 19.2639 12.9886C18.5564 11.7836 17.5263 11.3883 16.6693 11.6763C16.1557 11.0958 14.1139 9.40025 13.362 8.78103C12.8824 6.62502 9.97504 4.40148 8.12315 3.43716C6.99147 2.8468 4.40264 1.39079 2.01174 0Z" fill="black" fill-opacity="0.4745"/>
  </g>

  <!-- Layer 6: brush (viewBox 24.27x24.69, inner group position) -->
  <g transform="translate(2.932, 5.122) scale(1.0956, 1.0160)">
    <defs>
      <linearGradient id="g4" x1="0.206285" y1="0.293398" x2="62.9919" y2="51.2831" gradientUnits="userSpaceOnUse">
        <stop stop-color="#343434"/>
        <stop offset="1" stop-color="#4D4D4D"/>
      </linearGradient>
      <linearGradient id="g5" x1="21.9648" y1="19.605" x2="-36.3799" y2="19.1441" gradientUnits="userSpaceOnUse">
        <stop stop-color="#5596EA"/>
        <stop offset="1" stop-color="#5596EA" stop-opacity="0"/>
      </linearGradient>
    </defs>
    <path d="M17.7478 14.5468C15.5868 16.5622 11.4285 13.3642 9.67385 11.3568C7.86864 9.29081 1.1289 2.32263 0.637671 1.86981C0.14442 1.41699 -0.247773 0.85905 0.188875 0.305154C0.641695 -0.236613 1.26837 0.0322486 1.81418 0.422402C2.35797 0.810534 10.5674 5.96743 12.9608 7.3077C15.2876 8.60956 19.274 12.0178 17.7478 14.5468Z" fill="url(#g4)"/>
    <path d="M21.2148 16.5377C12.781 24.0618 5.88361 16.8511 4.81423 14.3525C5.44697 18.6886 8.36807 22.5679 12.781 24.0618C16.1145 25.1898 21.4331 25.1635 23.8185 20.8678L21.2148 16.5377Z" fill="url(#g5)"/>
    <path d="M21.1783 17.2452C20.489 17.5605 20.5638 17.789 19.9513 17.6899C19.5288 17.6212 15.8739 14.8517 15.8739 14.8517C15.6879 14.407 15.9103 13.7965 16.3287 13.3113C16.7168 12.8039 17.2687 12.4602 17.7418 12.5492C17.7418 12.5492 21.2066 15.5532 21.3603 15.9534C21.5846 16.5316 21.3461 16.5053 21.1783 17.2452Z" fill="#BFBFBF"/>
    <path d="M21.3685 23.3745C24.0915 21.8341 24.8839 19.1516 23.8085 17.1887C22.9736 15.6624 21.6009 15.3754 20.6549 16.1132C19.7149 16.845 19.632 17.7163 19.913 18.5815C20.4831 20.3483 22.7835 21.5532 21.3685 23.3745Z" fill="#282828"/>
  </g>
</svg>
