<svg preserveAspectRatio="none" width="100%" height="100%" overflow="visible" style="display: block;" viewBox="0 0 35 35" fill="none" xmlns="http://www.w3.org/2000/svg">
<g id="Midjourney">
<g id="Vector">
<path d="M27.2174 0H7.78264C3.48441 0 0 3.59106 0 8.02085V26.9791C0 31.4089 3.48441 35 7.78264 35H27.2174C31.5156 35 35 31.4089 35 26.9791V8.02085C35 3.59106 31.5156 0 27.2174 0Z" fill="var(--fill-0, white)"/>
<path d="M7.78223 0.5H27.2178C31.2255 0.500231 34.4998 3.85284 34.5 8.02051V26.9795C34.4998 31.1472 31.2255 34.4998 27.2178 34.5H7.78223C3.77454 34.4998 0.50018 31.1472 0.5 26.9795V8.02051C0.50018 3.85284 3.77454 0.50023 7.78223 0.5Z" stroke="var(--stroke-0, black)" stroke-opacity="0.05"/>
</g>
<path id="Vector_2" d="M27.2175 1.67005H7.78277C4.37945 1.67005 1.62051 4.51344 1.62051 8.02093V26.9792C1.62051 30.4867 4.37945 33.3301 7.78277 33.3301H27.2175C30.6208 33.3301 33.3798 30.4867 33.3798 26.9792V8.02093C33.3798 4.51344 30.6208 1.67005 27.2175 1.67005Z" fill="var(--fill-0, white)"/>
<g id="icons8-midjourney-48 1" clip-path="url(#clip0_0_4)">
<path id="Vector_3" d="M27.5595 26.0255C26.8982 26.0255 26.4398 25.6405 26.0356 25.3009C25.6762 24.9988 25.3655 24.7376 24.9544 24.7376C24.5432 24.7376 24.2325 24.9984 23.8732 25.3009C23.4689 25.6405 23.0106 26.0255 22.3492 26.0255C21.6878 26.0255 21.2295 25.6405 20.8252 25.3013C20.4655 24.9988 20.1547 24.738 19.7436 24.738C19.3325 24.738 19.0217 24.9988 18.6624 25.3013C18.2581 25.641 17.7998 26.026 17.1384 26.026C16.4766 26.026 16.0187 25.641 15.6145 25.3013C15.2547 24.9993 14.9439 24.738 14.5328 24.738C14.1217 24.738 13.8109 24.9988 13.4511 25.3013C13.0473 25.6405 12.589 26.0255 11.9276 26.0255C10.9404 25.9095 10.3322 25.4242 9.84312 25.0346C9.50625 24.766 9.24042 24.5538 8.98467 24.5538C8.50021 24.5538 8.12667 24.9539 7.76596 25.3408C7.43779 25.6932 7.1275 26.0255 6.71637 26.0255C6.52662 26.0255 6.37262 25.8715 6.37262 25.6818C6.37262 25.492 6.52662 25.338 6.71637 25.338C6.82867 25.338 7.07983 25.0685 7.26317 24.8719C7.68117 24.4236 8.20092 23.8663 8.98467 23.8663C9.48058 23.8663 9.86467 24.1729 10.2717 24.497C10.7144 24.8503 11.2163 25.2505 11.9689 25.3403C12.3392 25.338 12.6495 25.0772 13.0093 24.7752C13.4135 24.4355 13.8714 24.0505 14.5332 24.0505C15.1951 24.0505 15.653 24.4355 16.0572 24.7752C16.417 25.0772 16.7277 25.3385 17.1389 25.3385C17.55 25.3385 17.8607 25.0777 18.2201 24.7752C18.6243 24.4355 19.0827 24.0505 19.744 24.0505C20.4054 24.0505 20.8637 24.4355 21.268 24.7747C21.6278 25.0772 21.9385 25.338 22.3497 25.338C22.7608 25.338 23.0715 25.0772 23.4309 24.7747C23.8351 24.4351 24.2935 24.0501 24.9548 24.0501C25.6162 24.0501 26.0745 24.4351 26.4788 24.7747C26.8381 25.0768 27.1489 25.338 27.56 25.338C27.7497 25.338 27.9037 25.492 27.9037 25.6818C27.9037 25.8715 27.7493 26.0255 27.5595 26.0255Z" fill="var(--fill-0, black)" stroke="var(--stroke-0, black)" stroke-width="0.3"/>
<path id="Vector_4" d="M21.0975 24.9787C20.9682 24.9787 20.8436 24.9053 20.7854 24.7793C20.7056 24.6074 20.7803 24.403 20.9527 24.3228C22.2332 23.7283 23.8053 22.9382 25.167 21.8991L8.75183 22.9102L9.33667 24.024C9.42558 24.1917 9.36233 24.3998 9.19458 24.4892C9.02729 24.5772 8.81875 24.5148 8.72983 24.3471L7.89704 22.759C7.84296 22.6554 7.84525 22.5321 7.90208 22.4308C7.95938 22.329 8.06433 22.2635 8.18029 22.2562L26.174 21.1484C26.3248 21.1392 26.455 21.224 26.5113 21.3578C26.5682 21.4921 26.5343 21.648 26.4261 21.746C24.8467 23.1829 22.8263 24.2114 21.2414 24.947C21.1956 24.9686 21.1465 24.9787 21.0975 24.9787Z" fill="var(--fill-0, black)" stroke="var(--stroke-0, black)" stroke-width="0.3"/>
<path id="Vector_5" d="M24.1569 20.8097C24.1143 20.8097 24.0716 20.8019 24.0313 20.7858L23.8017 20.6942C23.1165 20.4173 22.6205 20.2175 21.7103 20.4499C21.527 20.4975 21.3436 20.3885 21.2937 20.2083C20.0424 15.6539 17.963 12.3461 15.1153 10.3762C14.976 10.2795 14.9279 10.0961 15.0017 9.9435C15.0755 9.79133 15.2492 9.71433 15.4114 9.76475C18.4818 10.7039 22.9643 15.2895 24.4869 20.3678C24.5245 20.4939 24.4869 20.6305 24.3902 20.7198C24.3251 20.7785 24.2417 20.8097 24.1569 20.8097ZM22.4496 19.6611C22.8873 19.6611 23.253 19.7546 23.6032 19.8802C22.4478 16.6324 20.1125 13.6707 17.8649 11.9157C19.6042 13.8815 20.9453 16.4908 21.8684 19.7133C22.077 19.6767 22.2695 19.6611 22.4496 19.6611Z" fill="var(--fill-0, black)" stroke="var(--stroke-0, black)" stroke-width="0.3"/>
<path id="Vector_6" d="M9.51404 21.5237C9.41871 21.5237 9.32429 21.4843 9.25738 21.4087C9.14646 21.2845 9.1405 21.0984 9.24363 20.9673C13.2078 15.9289 10.598 10.2872 9.29221 8.0955C9.21567 7.96762 9.23079 7.80537 9.32888 7.69308C9.42696 7.58125 9.58646 7.54504 9.72304 7.60371C13.3883 9.17121 19.2211 13.898 20.2693 20.4948C20.289 20.6176 20.2409 20.7405 20.1442 20.8179C20.0475 20.8949 19.9173 20.9146 19.8018 20.8674C16.1397 19.3902 12.7398 19.5942 9.69463 21.4724C9.63871 21.5073 9.57638 21.5237 9.51404 21.5237ZM10.4069 8.69271C11.6911 11.209 13.238 15.7973 10.6049 20.2028C13.3425 18.9378 16.3208 18.8718 19.4819 20.0099C18.3452 14.5332 13.7894 10.4756 10.4069 8.69271Z" fill="var(--fill-0, black)" stroke="var(--stroke-0, black)" stroke-width="0.3"/>
</g>
</g>
<defs>
<clipPath id="clip0_0_4">
<rect width="22" height="22" fill="white" transform="translate(6 6)"/>
</clipPath>
</defs>
</svg>
