<svg viewBox="0 0 35 35" fill="none" xmlns="http://www.w3.org/2000/svg">
<path d="M27.2174 0H7.78264C3.48441 0 0 3.59106 0 8.02085V26.9791C0 31.4089 3.48441 35 7.78264 35H27.2174C31.5156 35 35 31.4089 35 26.9791V8.02085C35 3.59106 31.5156 0 27.2174 0Z" fill="#001D23"/>
<path d="M27.2175 1.67005H7.78276C4.37943 1.67005 1.62049 4.51344 1.62049 8.02093V26.9792C1.62049 30.4867 4.37943 33.3301 7.78276 33.3301H27.2175C30.6208 33.3301 33.3797 30.4867 33.3797 26.9792V8.02093C33.3797 4.51344 30.6208 1.67005 27.2175 1.67005Z" fill="#001D23"/>
<path d="M8.74348 10.0441C8.74348 9.91639 8.76374 9.87714 8.86663 9.87714C9.71085 9.85627 11.3361 9.81368 12.9006 9.81368C17.0576 9.81368 18.4989 12.1892 18.4989 14.5013C18.4989 17.9381 15.9258 19.4009 12.7563 19.4009H11.5856V23.5759C11.5856 23.6819 11.5443 23.7429 11.4236 23.7429H8.88689C8.78399 23.7429 8.74348 23.6794 8.74348 23.5759V10.0441ZM11.5856 16.7891C11.9356 16.81 12.1617 16.81 12.7385 16.81C14.3646 16.81 15.6609 16.3007 15.6609 14.5614C15.6609 13.2254 14.7761 12.3771 12.9872 12.3771C12.3286 12.3771 11.772 12.398 11.5872 12.4197L11.5856 16.7891Z" fill="#01C8FE"/>
<path d="M23.787 15.3462C22.8196 15.3462 22.511 15.7069 22.511 16.0676C22.511 16.4283 22.7791 16.7039 23.9693 17.1706C26.4598 18.1041 27.2416 19.1011 27.2416 20.6066C27.2416 22.6222 25.7185 23.9582 23.0019 23.9582C21.747 23.9582 20.6524 23.7244 20.018 23.3645C19.9743 23.3445 19.9373 23.3116 19.9117 23.2701C19.886 23.2285 19.8729 23.18 19.8738 23.1307V20.8396C19.8738 20.7118 19.9548 20.6483 20.0358 20.7118C20.9829 21.3272 22.135 21.5601 23.0611 21.5601C24.0284 21.5601 24.4611 21.2846 24.4611 20.8396C24.4611 20.4363 24.1111 20.139 22.8966 19.6706C20.5714 18.7796 19.8098 17.761 19.8098 16.2338C19.8098 14.5797 21.1061 12.989 23.8226 12.989C25.0379 12.989 25.9842 13.156 26.4963 13.4132C26.5448 13.4383 26.5847 13.4782 26.6103 13.5275C26.636 13.5769 26.6462 13.6332 26.6397 13.6887V15.8096C26.6397 15.9374 26.5586 16.0217 26.4339 15.9582C25.7638 15.6009 24.7106 15.3462 23.787 15.3462Z" fill="#01C8FE"/>
</svg>
