<svg viewBox="0 0 16.6666 14.9317" fill="none" xmlns="http://www.w3.org/2000/svg">
<path id="Vector" fill-rule="evenodd" clip-rule="evenodd" d="M10.9608 11.6292L12.8675 14.9317C12.8675 14.9317 8.74083 14.9317 5.5275 14.9317C3.22917 14.9317 1.11167 13.6825 0 11.6708C0 11.67 0 11.67 0 11.67L0.0241667 11.6292H10.9608V11.6292ZM6.9625 0C9.28 0 11.4267 1.21917 12.6142 3.21C13.5908 4.8475 14.775 6.83417 15.7508 8.47C16.9325 10.4517 16.9733 12.9117 15.8575 14.9308C15.8575 14.9317 15.8575 14.9317 15.8575 14.9317H15.5825L6.9625 0V0ZM9.6025 9.2775H1.42667L5.58083 2.31167L9.6025 9.2775Z" fill="var(--fill-0, #C0C0C0)"/>
</svg>
