<svg viewBox="0 0 16.1032 10.0899" fill="none" xmlns="http://www.w3.org/2000/svg">
<g id="XMLID_97_">
<path id="XMLID_102_" d="M4.66797 0C5.14062 0 5.57031 0.0390624 5.96094 0.125C6.34766 0.207031 6.67969 0.34375 6.96094 0.535156C7.23828 0.722656 7.45312 0.976562 7.60547 1.28906C7.75781 1.60156 7.83203 1.99219 7.83203 2.45312C7.83203 2.95312 7.71875 3.36719 7.49219 3.70312C7.26562 4.03516 6.92969 4.30859 6.48047 4.51953C7.08984 4.69531 7.54297 5.00391 7.83984 5.44141C8.14062 5.88281 8.28906 6.41016 8.28906 7.03125C8.28906 7.53516 8.1914 7.96484 8 8.32812C7.80469 8.69531 7.54297 8.99609 7.21484 9.22656C6.88672 9.45703 6.51172 9.62891 6.08984 9.74219C5.67187 9.85156 5.23828 9.91016 4.79687 9.91016H0V0H4.66797ZM4.38672 4C4.77344 4 5.09375 3.91016 5.34766 3.72266C5.59766 3.53906 5.71875 3.23828 5.71875 2.82031C5.71875 2.58984 5.67969 2.39844 5.59766 2.25C5.51172 2.10156 5.40234 1.98828 5.26172 1.90625C5.12109 1.82031 4.96484 1.76562 4.78125 1.73047C4.60156 1.69531 4.41406 1.67969 4.21875 1.67969H2.17969V3.99609H4.38672V4ZM4.50781 8.21875C4.72266 8.21875 4.92578 8.19922 5.12109 8.15625C5.31641 8.11328 5.48828 8.04687 5.63672 7.94531C5.78125 7.84766 5.90234 7.71875 5.99219 7.55078C6.08203 7.38281 6.12109 7.16797 6.12109 6.91016C6.12109 6.39844 5.97656 6.03906 5.69141 5.81641C5.40625 5.59766 5.02344 5.49219 4.55469 5.49219H2.18359V8.21875H4.50781Z" fill="var(--fill-0, #C0C0C0)"/>
<path id="XMLID_99_" d="M11.4023 8.18365C11.6992 8.47271 12.125 8.61725 12.6758 8.61725C13.0742 8.61725 13.418 8.51568 13.7031 8.31646C13.9883 8.11725 14.1641 7.9024 14.2305 7.67975H15.9648C15.6875 8.54303 15.2617 9.16021 14.6875 9.53131C14.1172 9.9024 13.4219 10.0899 12.6094 10.0899C12.043 10.0899 11.5352 10.0001 11.0781 9.81646C10.6211 9.63287 10.2422 9.37896 9.92187 9.04693C9.60937 8.711 9.36719 8.31646 9.19531 7.85162C9.02344 7.39068 8.9375 6.87896 8.9375 6.32428C8.9375 5.78912 9.02734 5.28521 9.20312 4.82428C9.38281 4.35943 9.6289 3.95709 9.95312 3.62115C10.2773 3.28131 10.6641 3.01568 11.1172 2.82037C11.5664 2.62506 12.0625 2.5274 12.6133 2.5274C13.2187 2.5274 13.75 2.64459 14.207 2.88287C14.6601 3.11725 15.0312 3.43365 15.3242 3.83209C15.6172 4.23053 15.8242 4.68365 15.9531 5.19146C16.082 5.69928 16.1289 6.23053 16.0898 6.78912H10.9141C10.9141 7.35943 11.1055 7.8985 11.4023 8.18365ZM13.6641 4.41803C13.4297 4.16021 13.0351 4.01959 12.5508 4.01959C12.2344 4.01959 11.9766 4.07428 11.7656 4.17975C11.5625 4.28521 11.3945 4.41803 11.2656 4.57428C11.1367 4.73443 11.0508 4.9024 11 5.07818C10.9492 5.25396 10.918 5.41021 10.9102 5.55084H14.1172C14.0742 5.05084 13.9023 4.67975 13.6641 4.41803Z" fill="var(--fill-0, #C0C0C0)"/>
<path id="XMLID_98_" d="M14.5273 0.664062H10.5117V1.64062H14.5273V0.664062Z" fill="var(--fill-0, #C0C0C0)"/>
</g>
</svg>
