<svg viewBox="0 0 11.9807 19.3244" fill="none" xmlns="http://www.w3.org/2000/svg">
<g id="Group">
<path id="Vector" d="M2.99609 3.86328C3.90625 3.86328 4.82031 3.86719 5.73046 3.86328C6.07812 3.86328 6.35155 3.66797 6.5039 3.39063C7.01952 2.45703 7.5039 1.50781 7.99218 0.5625C8.09374 0.367187 8.24608 0.222656 8.39061 0.0625C8.4414 0.00781248 8.49999 0.00390623 8.5664 0.00390623C9.65233 0.00390623 10.7422 0.0078125 11.8281 0C11.9492 0 11.9805 0.0390625 11.9805 0.15625C11.9765 1.23828 11.9765 2.31641 11.9805 3.39844C11.9805 3.48828 11.9492 3.5625 11.9101 3.63672C10.7812 5.78906 9.65624 7.94141 8.53124 10.0898C8.41015 10.3203 8.60155 10.6328 8.86718 10.6328C9.84374 10.6328 10.8203 10.6367 11.7969 10.6289C11.9414 10.6289 11.9844 10.6602 11.9805 10.8086C11.9726 12.293 11.9726 13.7773 11.9805 15.2617C11.9805 15.418 11.9375 15.457 11.7851 15.457C9.94139 15.4531 8.10155 15.4531 6.2578 15.4531C5.91015 15.4531 5.63281 15.6523 5.48046 15.9258C4.94531 16.8906 4.44921 17.8789 3.92968 18.8516C3.77734 19.1367 3.57421 19.332 3.18359 19.3242C2.1875 19.293 1.1914 19.3125 0.195312 19.3164C0.0429687 19.3164 0 19.2813 0 19.125C0.00781249 18.0703 0.00390625 17.0156 0 15.9609C0 15.8438 0.0312498 15.7461 0.0859373 15.6445C1.20703 13.5039 2.32812 11.3633 3.44921 9.22656C3.5664 9 3.38281 8.69141 3.12109 8.69141C2.15234 8.69141 1.17969 8.6875 0.210937 8.69531C0.035156 8.69531 0 8.64453 0 8.48047C0.00781249 7.00781 0.00781249 5.53906 0 4.06641C0 3.88672 0.0546874 3.85547 0.21875 3.85547C1.14453 3.86719 2.07031 3.86328 2.99609 3.86328Z" fill="var(--fill-0, #C0C0C0)"/>
</g>
</svg>
