<svg viewBox="0 0 15 12.397" fill="none" xmlns="http://www.w3.org/2000/svg">
<path d="M14.0527 0.0229076C14.3182 -0.0215038 14.6405 -0.0193448 14.8354 0.196236C15.0245 0.412741 15.0128 0.723621 14.9829 0.99194C14.9017 1.70406 14.7855 2.41187 14.6797 3.1206C14.2812 5.76277 13.8497 8.3997 13.4322 11.0391C13.372 11.4058 13.3409 11.807 13.0926 12.105C12.8992 12.3486 12.5658 12.4282 12.2685 12.3862C11.7942 12.3221 11.3618 12.0914 10.9612 11.841C9.70776 10.9999 8.426 10.1984 7.22011 9.28916C7.00052 9.10936 6.74084 8.9533 6.6113 8.69022C6.52495 8.52152 6.52464 8.31427 6.60945 8.14526C6.70907 7.9306 6.90152 7.78411 7.06899 7.62528C8.37295 6.42031 9.66243 5.19992 10.9229 3.94931C11.0787 3.78924 11.2144 3.60543 11.297 3.39663C11.3257 3.31552 11.3581 3.21529 11.3047 3.13726C11.248 3.07773 11.1573 3.08668 11.0842 3.10086C10.8992 3.14065 10.7314 3.23225 10.5658 3.31984C10.1957 3.52493 9.85087 3.77104 9.49959 4.00544C7.92082 5.06977 6.34144 6.13256 4.76299 7.1972C4.62636 7.28756 4.49498 7.39273 4.3346 7.43838C3.82356 7.60677 3.26657 7.54447 2.75892 7.39458C1.95458 7.14847 1.15394 6.89033 0.357313 6.62016C0.201873 6.58037 0.0871438 6.44591 0.0254613 6.30373C-0.0356044 6.15939 0.0199099 5.99532 0.120452 5.88367C0.290079 5.69184 0.524164 5.57433 0.753932 5.47009C5.0788 3.69332 9.39781 1.90114 13.7184 0.113889C13.8263 0.0728704 13.9389 0.0438796 14.0527 0.0229076Z" fill="var(--fill-0, #C0C0C0)"/>
</svg>
