<svg viewBox="0 0 10.75 18.75" fill="none" xmlns="http://www.w3.org/2000/svg">
<g id="Layer_11">
<path id="Vector" d="M10.75 17.5312C9.8125 18.2812 8.625 18.75 7.3125 18.75C6.125 18.75 5 18.375 4.125 17.7188C2.75 16.7188 1.875 15.125 1.875 13.3125V7.5H0V5.46875C0 5.28125 0.0937499 5.125 0.28125 5.0625C0.46875 4.96875 0.65625 4.84375 0.84375 4.75C1.21875 4.53125 1.53125 4.25 1.84375 3.96875C2.8125 3.03125 3.46875 1.8125 3.6875 0.4375C3.6875 0.15625 3.875 0 4.09375 0H6.53125V4.6875H10.2813V7.5H6.53125V13.375C6.53125 13.4062 6.53125 13.4375 6.53125 13.4687C6.53125 13.5 6.53125 13.5313 6.53125 13.5625C6.5625 14.375 7.21875 15.0625 8.03125 15.125C8.09375 15.125 8.15625 15.125 8.25 15.125C8.8125 15.125 9.375 14.9687 9.8125 14.6875L10.75 17.4688V17.5312Z" fill="var(--fill-0, #C0C0C0)"/>
</g>
</svg>
