<svg viewBox="0 0 20 20" fill="none" xmlns="http://www.w3.org/2000/svg">
<path d="M10 0C4.477 0 0 4.477 0 10s4.477 10 10 10 10-4.477 10-10S15.523 0 10 0Zm5.45 7.08c-.06 1.34-1 3.18-2.81 5.52-1.87 2.44-3.46 3.66-4.74 3.66-.8 0-1.47-.74-2.01-2.2-.37-1.34-.73-2.69-1.1-4.03-.41-1.47-.85-2.2-1.32-2.2-.1 0-.46.22-1.07.65l-.64-.82c.67-.59 1.34-1.19 2-1.78.9-.78 1.57-1.19 2.03-1.23 1.06-.1 1.72.63 1.96 2.18.27 1.68.45 2.73.55 3.14.31 1.4.65 2.1 1.02 2.1.29 0 .72-.45 1.29-1.36.57-.91.88-1.6.92-2.07.08-.78-.23-1.18-.92-1.18-.33 0-.67.08-1.02.23.68-2.21 1.96-3.28 3.87-3.22 1.41.04 2.07.96 1.99 2.75l-.06.56Z" fill="var(--fill-0, #C0C0C0)"/>
</svg>
