<svg preserveAspectRatio="none" width="100%" height="100%" overflow="visible" style="display: block;" viewBox="0 0 12.7446 50.0677" fill="none" xmlns="http://www.w3.org/2000/svg">
<g id="Group">
<path id="Vector" d="M3.1897 1.9299C3.64564 1.04546 4.50324 0.409099 5.43683 0.0963104C6.54411 -0.23805 7.69481 0.344384 8.45471 1.13175C9.35573 2.10247 10.0071 3.31049 10.3436 4.594C10.7235 5.99616 10.8647 7.45224 10.9732 8.89754C10.9515 9.94377 11.0492 10.9792 11.0818 12.0254C11.0492 12.9854 10.9515 13.9561 10.9732 14.916C10.7995 16.9977 10.6367 19.1117 9.98536 21.1071C9.59456 22.272 8.84551 23.4908 7.59711 23.8575C6.68523 24.1811 5.69737 23.8791 4.9049 23.4045C4.9049 23.9006 4.9049 24.4076 4.91576 24.9037C6.44641 25.292 7.94449 26.1549 8.73696 27.5678C9.486 28.9484 9.71397 30.5447 9.82252 32.0979C9.93108 32.7666 9.86595 33.4569 9.89851 34.1364C10.0613 36.6171 9.95279 39.0978 9.99622 41.5786C10.0179 42.0747 10.1048 42.5817 10.0939 43.0778C10.0722 43.6171 10.2785 44.178 10.0396 44.6849C9.82252 45.2242 9.21461 45.5262 8.65011 45.4831C8.30273 45.3644 7.93364 45.2026 7.73823 44.8683C7.34743 44.3074 7.51026 43.5955 7.41256 42.9592C7.32572 42.3875 7.35829 41.8159 7.34743 41.2442C7.32572 38.6556 7.24973 36.067 7.23887 33.4784C7.11946 31.9576 7.09775 30.3937 6.48983 28.97C6.20758 28.3336 5.62138 27.8806 5.01346 27.5894C5.02431 30.5555 4.98089 33.5324 5.11116 36.4985C5.12201 38.6664 5.12201 40.8236 5.13287 42.9915C5.12201 43.5524 5.26314 44.1672 4.94832 44.6633C4.60094 45.2997 3.67821 45.5154 3.092 45.0732C2.65778 44.7712 2.45152 44.2319 2.47323 43.725C2.48408 41.708 2.47323 39.7019 2.37553 37.6849C2.36467 35.5601 2.36467 33.4461 2.35382 31.3213C2.32125 29.8975 2.24526 28.463 2.25612 27.0393C1.73504 27.0069 1.20311 27.3089 0.692898 27.0501C-0.0127214 26.7697 -0.218979 25.7881 0.258671 25.2273C0.573485 24.8066 1.11627 24.7203 1.59392 24.6125C1.81103 24.6017 2.02815 24.6017 2.24526 24.6017C2.26697 22.6387 2.20184 20.6757 2.14756 18.7126C2.1367 16.1564 2.15841 13.6002 2.08242 11.0439C2.00643 8.71418 2.04986 6.37366 2.02815 4.03314C1.99558 3.50463 2.19098 2.90062 2.67949 2.64176C2.98345 2.53391 3.03772 2.18876 3.1897 1.9299ZM5.8602 3.74192C5.3717 4.07628 5.08945 4.64793 5.02431 5.23036C4.79634 6.66488 4.8072 8.25039 4.79634 8.68183C4.8072 10.1487 4.78549 11.6264 4.82891 13.0932C4.89405 14.366 4.88319 15.272 4.95918 16.3505C5.06774 17.6772 5.12201 19.0578 5.62138 20.3089C5.81678 20.8374 6.28357 21.3336 6.88063 21.2905C7.42342 21.2905 7.73823 19.8128 7.81422 19.5539C8.05305 18.6371 8.19417 15.9083 8.31358 14.0747C8.32444 12.5647 8.32444 11.0547 8.31358 9.54469C8.20503 8.02389 8.10733 6.4923 7.66224 5.02543C7.48855 4.50771 7.21716 3.98999 6.72866 3.69878C6.46812 3.54777 6.10988 3.55856 5.8602 3.74192Z" fill="currentColor"/>
<path id="Vector_2" d="M10.1482 26.4138C9.61627 25.6695 10.0505 24.4723 10.9515 24.2566C11.2989 24.2135 11.6897 24.1919 12.0045 24.3968C12.6341 24.7635 12.9381 25.6264 12.6124 26.2843C12.5039 26.5216 12.2868 26.6942 12.0805 26.856C11.6463 27.0286 11.1469 27.0609 10.7127 26.856C10.6584 26.8236 10.5607 26.7697 10.5064 26.7373C10.3762 26.6295 10.2568 26.5216 10.1482 26.4138Z" fill="currentColor"/>
<path id="Vector_3" d="M9.54029 47.4677C9.59456 47.4784 9.67055 47.5 9.7574 47.5432C9.84424 47.5863 9.90938 47.6402 9.94195 47.6834C9.98537 47.7265 10.0396 47.7912 10.0939 47.8559C10.0939 47.8559 10.1591 47.9422 10.2242 48.0501C10.311 48.2011 10.3979 48.6109 10.3653 49.161C10.3545 49.366 10.3002 49.5277 10.1808 49.7003C10.0505 49.8729 9.88767 49.9592 9.78997 50.0023C9.74654 50.0239 9.69227 50.0455 9.62713 50.0562C9.57285 50.067 9.51857 50.067 9.48601 50.067H3.85191C3.2657 50.0778 2.49495 49.97 2.25612 49.3552C2.12585 49.01 2.02815 48.6433 2.08243 48.2658C2.08243 48.2442 2.09328 48.1795 2.09328 48.1579C2.115 48.0501 2.20184 47.9099 2.25612 47.8452L2.41896 47.7049C2.56008 47.5971 2.62521 47.5755 2.75548 47.5108C2.90746 47.4353 3.0703 47.4137 3.22228 47.3814C3.86276 47.3167 4.34041 47.3274 4.90491 47.3274H5.24143C5.99048 47.2843 9.35574 47.4137 9.54029 47.4677Z" fill="currentColor"/>
</g>
</svg>
