<svg preserveAspectRatio="none" width="100%" height="100%" overflow="visible" style="display: block;" viewBox="0 0 35 35" fill="none" xmlns="http://www.w3.org/2000/svg">
<g id="Fullscreen">
<path id="Vector" opacity="0.15" d="M27.2174 0H7.78264C3.48441 0 0 3.59106 0 8.02085V26.9791C0 31.4089 3.48441 35 7.78264 35H27.2174C31.5156 35 35 31.4089 35 26.9791V8.02085C35 3.59106 31.5156 0 27.2174 0Z" fill="var(--fill-0, #7F7F7F)"/>
<g id="#000000ff" opacity="0.6">
<path id="Vector_2" d="M6.95521 6.50634C7.37974 6.17626 7.9165 5.99802 8.45427 6.00157C10.6201 6.00106 12.7859 6.00055 14.9522 6.00208C15.3412 6.00259 15.7226 6.18438 15.9719 6.48196C16.2751 6.83438 16.3731 7.34778 16.2202 7.78704C16.0486 8.31923 15.5184 8.7077 14.9588 8.7077C12.8758 8.71177 10.7927 8.70821 8.7097 8.70973C8.70868 10.5912 8.70919 12.4731 8.70919 14.3546C8.71884 14.741 8.55989 15.1295 8.27298 15.39C7.97286 15.6713 7.53919 15.8013 7.13396 15.7313C6.69724 15.6622 6.30622 15.3626 6.12443 14.9599C6.02693 14.7552 5.99544 14.5262 6.00052 14.3018C6.00255 12.3386 5.99849 10.3759 6.00255 8.41266C6.00458 7.67481 6.36818 6.95169 6.95521 6.50634Z" fill="var(--fill-0, white)"/>
<path id="Vector_3" d="M19.3215 6.48122C19.5698 6.18415 19.9506 6.00286 20.3386 6.00185C22.3856 5.99982 24.4326 6.00134 26.4796 6.00083C26.8025 5.99982 27.1311 5.99017 27.4465 6.07447C28.1239 6.24052 28.717 6.71533 29.0293 7.33892C29.2147 7.70048 29.2979 8.10876 29.2924 8.51349C29.2918 10.4767 29.2939 12.4394 29.2918 14.4026C29.3005 15.0435 28.7932 15.6396 28.1589 15.731C27.5815 15.8372 26.964 15.5122 26.7177 14.9815C26.6045 14.756 26.5761 14.5001 26.5837 14.2513C26.5847 12.4038 26.5842 10.5569 26.5837 8.7095C24.5179 8.709 22.4526 8.71001 20.3868 8.709C19.8922 8.72271 19.4047 8.44392 19.1696 8.00771C18.899 7.53189 18.9619 6.89407 19.3215 6.48122Z" fill="var(--fill-0, white)"/>
<path id="Vector_4" d="M6.55102 19.8082C6.94508 19.5086 7.50824 19.4588 7.95055 19.6813C8.40961 19.8996 8.71582 20.3953 8.70871 20.9036C8.71024 22.7972 8.70871 24.6908 8.70922 26.584C10.7902 26.585 12.8707 26.5829 14.9518 26.585C15.3352 26.586 15.712 26.7612 15.9613 27.0522C16.2705 27.4031 16.3741 27.92 16.2228 28.3628C16.0527 28.9011 15.517 29.2936 14.9518 29.2911C12.7712 29.2931 10.5907 29.2942 8.41012 29.2906C7.44426 29.2906 6.52106 28.6558 6.17473 27.755C6.05082 27.4508 5.99903 27.1217 6.00106 26.7942C6.00106 24.831 6.00004 22.8673 6.00156 20.9041C5.99649 20.4785 6.20672 20.0586 6.55102 19.8082Z" fill="var(--fill-0, white)"/>
<path id="Vector_5" d="M27.773 19.5529C28.3356 19.4752 28.9211 19.7977 29.1588 20.3126C29.2644 20.5264 29.299 20.7676 29.2929 21.0042C29.2918 22.8501 29.2929 24.696 29.2929 26.5414C29.3005 26.9238 29.2852 27.3153 29.1481 27.6769C28.8247 28.6158 27.8791 29.2922 26.8853 29.2907C24.72 29.2953 22.5542 29.2917 20.3889 29.2927C19.9014 29.306 19.4195 29.0363 19.1803 28.6102C18.9558 28.2248 18.9421 27.7272 19.1452 27.3306C19.3265 26.9649 19.6825 26.6933 20.0827 26.612C20.267 26.5744 20.4569 26.5851 20.6443 26.5841C22.6243 26.5846 24.6042 26.5846 26.5842 26.5841C26.5862 24.6737 26.5811 22.7628 26.5862 20.8519C26.5928 20.2044 27.1301 19.6194 27.773 19.5529Z" fill="var(--fill-0, white)"/>
</g>
</g>
</svg>
