<svg viewBox="0 0 14.6747 18" fill="none" xmlns="http://www.w3.org/2000/svg">
<path d="M10.801 0C10.8428 0 10.8847 0 10.929 0C11.0318 1.2694 10.5472 2.21789 9.95838 2.90476C9.38059 3.58688 8.58939 4.24845 7.30971 4.14807C7.22435 2.89685 7.70966 2.01871 8.29773 1.33342C8.84311 0.69477 9.84298 0.126466 10.801 0Z" fill="#C0C0C0"/>
<path d="M14.6747 13.2125C14.6747 13.2251 14.6747 13.2362 14.6747 13.2481C14.3151 14.3372 13.8021 15.2707 13.1761 16.137C12.6047 16.9235 11.9044 17.9818 10.6539 17.9818C9.57344 17.9818 8.85575 17.2871 7.74839 17.2681C6.577 17.2491 5.93281 17.849 4.86181 18C4.7393 18 4.61678 18 4.49664 18C3.71018 17.8862 3.07548 17.2633 2.61309 16.7022C1.24964 15.0439 0.196022 12.9019 0 10.1607C0 9.89199 0 9.62404 0 9.3553C0.082993 7.3935 1.03623 5.79845 2.30325 5.02543C2.97194 4.61442 3.89119 4.26427 4.91477 4.42077C5.35344 4.48875 5.80161 4.63892 6.19444 4.78752C6.56672 4.93058 7.03227 5.18431 7.47332 5.17087C7.7721 5.16217 8.06929 5.00646 8.37044 4.8966C9.25254 4.57806 10.1172 4.21289 11.257 4.38441C12.6268 4.5915 13.599 5.20011 14.1997 6.13912C13.041 6.87657 12.1249 7.98789 12.2814 9.88566C12.4205 11.6095 13.4227 12.6181 14.6747 13.2125Z" fill="#C0C0C0"/>
</svg>
