<svg preserveAspectRatio="none" width="100%" height="100%" overflow="visible" style="display: block;" viewBox="0 0 61 60" fill="none" xmlns="http://www.w3.org/2000/svg">
<g id="wacom-vector-logo 1">
<path id="Vector" d="M57.8284 26.3098C57.4542 26.6779 56.8554 26.6779 56.4718 26.3098C56.2847 26.135 56.1818 25.8957 56.1818 25.638C56.1818 25.3896 56.2847 25.1503 56.4718 24.9754C56.846 24.6073 57.4542 24.6073 57.8284 24.9754C58.0155 25.1503 58.1184 25.3896 58.1184 25.638C58.1091 25.8957 58.0061 26.135 57.8284 26.3098ZM56.5654 25.0767C56.4063 25.2239 56.3221 25.4264 56.3221 25.6472C56.3221 25.8589 56.4063 26.0613 56.5654 26.2178C56.8834 26.5307 57.4074 26.5307 57.7255 26.2178C57.8752 26.0705 57.9687 25.8681 57.9687 25.6472C57.9687 25.4356 57.8845 25.2331 57.7255 25.0767C57.4074 24.7638 56.8928 24.7638 56.5747 25.0767H56.5654ZM57.1361 25.1319C57.2296 25.1227 57.3325 25.1411 57.4261 25.1687C57.5384 25.2055 57.6038 25.3159 57.5945 25.4264C57.6038 25.5092 57.5571 25.592 57.4916 25.6288C57.4448 25.6564 57.398 25.6748 57.3419 25.6748C57.4167 25.684 57.4822 25.7208 57.5196 25.7761C57.5571 25.8221 57.5758 25.8773 57.5758 25.9417V26.0061C57.5758 26.0337 57.5758 26.0613 57.5758 26.0889C57.5758 26.1073 57.5758 26.1257 57.5758 26.1442H57.4074V26.0153C57.4167 25.9233 57.3793 25.8313 57.3138 25.7761C57.2483 25.7484 57.1735 25.7392 57.108 25.7392H56.9583V26.1442H56.7712V25.1227L57.1361 25.1319ZM57.3419 25.2975C57.2764 25.2699 57.1922 25.2515 57.1173 25.2607H56.9583V25.6288H57.1267C57.1828 25.6288 57.2483 25.6196 57.3045 25.6104C57.37 25.5828 57.4167 25.5184 57.4074 25.4448C57.4074 25.3619 57.3887 25.3067 57.3419 25.2975Z" fill="var(--fill-0, #C0C0C0)"/>
<path id="Vector_2" d="M48.8655 25.7484C48.2574 24.9754 47.4528 24.6533 46.1336 24.6533C44.1502 24.6533 42.8684 25.7576 42.8684 27.4693V34.3435H44.1221V27.6257C44.1221 26.4386 44.8051 25.8589 46.1991 25.8589C47.5183 25.8589 48.248 26.4478 48.248 27.5153V34.3435H49.5017V27.5153C49.5017 26.4478 50.2315 25.8589 51.5506 25.8589C52.9446 25.8589 53.6276 26.4294 53.6276 27.6257V34.3343H54.8813V27.4601C54.8813 25.7576 53.5995 24.6441 51.6161 24.6441C50.2782 24.6533 49.483 24.9754 48.8655 25.7484Z" fill="var(--fill-0, #C0C0C0)"/>
<path id="Vector_3" d="M38.022 24.635H36.3941C34.0926 24.635 33.0353 26.1442 33.0353 27.543V31.4816C33.0353 32.8804 34.0832 34.3896 36.3847 34.3896H38.0314C40.3329 34.3896 41.3807 32.8804 41.3807 31.4816V27.543C41.3807 26.135 40.3329 24.635 38.022 24.635ZM40.1271 31.3252C40.1271 32.5031 39.3412 33.1841 37.9752 33.1841H36.4502C35.0562 33.1841 34.289 32.5215 34.289 31.3252V27.6994C34.289 26.5215 35.0749 25.8405 36.4502 25.8405H37.9752C39.3412 25.8405 40.1271 26.5215 40.1271 27.6994V31.3252Z" fill="var(--fill-0, #C0C0C0)"/>
<path id="Vector_4" d="M28.1891 24.635C25.8876 24.635 24.8304 26.1442 24.8304 27.543V31.4816C24.8304 32.8804 25.8783 34.3896 28.1798 34.3896H29.6206C30.7901 34.3896 31.5572 34.224 32.1747 33.8191L32.2589 33.7639L31.5385 32.7332L31.4637 32.7792C31.0052 33.0645 30.4252 33.1657 29.4522 33.1657H28.2546C26.8606 33.1657 26.0934 32.5031 26.0934 31.3068V27.6994C26.0934 26.4939 26.8513 25.8405 28.2546 25.8405H29.4428C30.4065 25.8405 30.9865 25.951 31.4543 26.227L31.5292 26.273L32.2496 25.2516L32.1654 25.1964C31.5479 24.8006 30.7901 24.6258 29.6112 24.6258L28.1891 24.635Z" fill="var(--fill-0, #C0C0C0)"/>
<path id="Vector_5" d="M18.9175 24.6349C18.169 24.5981 17.4112 24.7085 16.7095 24.9754L16.6066 25.0122L17.2334 26.1073L17.3083 26.0797C17.7386 25.9049 18.2064 25.8496 19.0765 25.8496H20.0121C21.378 25.8496 22.1639 26.5306 22.1639 27.7085V31.3343C22.1639 32.5122 21.378 33.1932 20.0121 33.1932H18.4964C17.0931 33.1932 16.4101 32.6226 16.4101 31.4907C16.4101 30.3588 17.0931 29.7883 18.4964 29.7883H20.6296V28.5736H18.431C16.3446 28.5736 15.1564 29.6318 15.1564 31.4907C15.1564 33.2852 16.4101 34.3987 18.431 34.3987H20.0776C22.3791 34.3987 23.427 32.8895 23.427 31.4907V27.5521C23.427 26.1533 22.3791 24.6441 20.0776 24.6441H18.9175V24.6349Z" fill="var(--fill-0, #C0C0C0)"/>
<path id="Vector_6" d="M12.7333 24.6994V31.408C12.7333 32.5951 12.0503 33.1748 10.6563 33.1748C9.33713 33.1748 8.60738 32.5859 8.60738 31.5276V24.6994H7.34434V31.5276C7.34434 32.5951 6.61458 33.1748 5.29541 33.1748C3.90139 33.1748 3.21842 32.6043 3.21842 31.408V24.6994H1.96474V31.5736C1.96474 33.2761 3.24649 34.3896 5.22992 34.3896C6.55845 34.3896 7.35369 34.0675 7.96182 33.2945C8.56995 34.0675 9.37455 34.3896 10.6937 34.3896C12.6772 34.3896 13.9589 33.2853 13.9589 31.5736V24.6994H12.7333V24.6994Z" fill="var(--fill-0, #C0C0C0)"/>
</g>
</svg>
